# xmcd CD database file
#
# Track frame offsets:
#	150
#	14234
#	41409
#	65828
#	100311
#	127771
#	153273
#	178503
#	200318
#	225034
#	247673
#
# Disc length: 3693 seconds
#
# Revision: 0
# Processed by: cddbd v1.5.2PL0 Copyright (c) Steve Scherf et al.
# Submitted via: CDex 1.51
#
DISCID=7f0e6b0b
DTITLE=Lonnie McFadden - Going in Circles
DYEAR=2007
DGENRE=Jazz
TTITLE0=Get Ready
TTITLE1=Chameleon
TTITLE2=People Make the World...
TTITLE3=Memphis Underground
TTITLE4=Superstition
TTITLE5=Wonderful World
TTITLE6=Come Together
TTITLE7=Summertime
TTITLE8=Going in Circles
TTITLE9=Use Me
TTITLE10=All Blues
EXTD=YEAR: 2007
EXTT0=
EXTT1=
EXTT2=
EXTT3=
EXTT4=
EXTT5=
EXTT6=
EXTT7=
EXTT8=
EXTT9=
EXTT10=
PLAYORDER=
